<?xml version="1.0" encoding="UTF-8"?>
<svg width="1440" height="900" viewBox="0 0 1440 900" xmlns="http://www.w3.org/2000/svg" font-family="Inter,-apple-system,BlinkMacSystemFont,sans-serif">
<title>03 — Library / History</title>
<rect width="1440" height="900" fill="#FAFAFA"/>
<rect x="0" y="0" width="1440" height="50" rx="0" fill="#FFFFFF" stroke="#CECBC4" stroke-width="0.5"/>
<text x="20" y="31" font-size="14" fill="#1A1A1A" font-weight="500" text-anchor="start">YourAI</text>
<text x="180" y="31" font-size="14" fill="#1967D2" font-weight="500" text-anchor="start">Library</text>
<rect x="1060" y="10" width="340" height="30" rx="15" fill="#F0F0EF" stroke="#CECBC4" stroke-width="0.5"/>
<text x="1082" y="30" font-size="12" fill="#9B9994" font-weight="normal" text-anchor="start">🔍  Search all chats…</text>
<circle cx="1408" cy="25" r="16" fill="#E6E4DF" stroke="#CECBC4" stroke-width="0.5"/>
<text x="1408" y="31" font-size="12" fill="#555551" font-weight="normal" text-anchor="middle">M</text>
<rect x="0" y="50" width="240" height="850" rx="0" fill="#FFFFFF" stroke="#CECBC4" stroke-width="0.5"/>
<rect x="12" y="64" width="216" height="36" rx="6" fill="#1A1A1A" stroke="#1A1A1A" stroke-width="0.5"/>
<text x="120.0" y="86.0" font-size="11" fill="#FFFFFF" font-weight="normal" text-anchor="middle">+ New Chat</text>
<line x1="12" y1="112" x2="228" y2="112" stroke="#CECBC4" stroke-width="0.5"/>
<text x="12" y="132" font-size="9" fill="#9B9994" font-weight="500" text-anchor="start">QUICK ACCESS</text>
<rect x="8" y="138" width="224" height="32" rx="6" fill="#E8F0FE" stroke="#1967D2" stroke-width="1"/>
<text x="28" y="158" font-size="11" fill="#1967D2" font-weight="normal" text-anchor="start">All chats</text>
<rect x="8" y="174" width="224" height="32" rx="6" fill="#FFFFFF" stroke="#CECBC4" stroke-width="0.5"/>
<text x="28" y="194" font-size="11" fill="#555551" font-weight="normal" text-anchor="start">Starred</text>
<rect x="8" y="210" width="224" height="32" rx="6" fill="#FFFFFF" stroke="#CECBC4" stroke-width="0.5"/>
<text x="28" y="230" font-size="11" fill="#555551" font-weight="normal" text-anchor="start">Shared</text>
<rect x="8" y="246" width="224" height="32" rx="6" fill="#FFFFFF" stroke="#CECBC4" stroke-width="0.5"/>
<text x="28" y="266" font-size="11" fill="#555551" font-weight="normal" text-anchor="start">Archived</text>
<line x1="12" y1="288" x2="228" y2="288" stroke="#CECBC4" stroke-width="0.5"/>
<text x="12" y="308" font-size="9" fill="#9B9994" font-weight="500" text-anchor="start">SPACES</text>
<rect x="8" y="314" width="224" height="30" rx="6" fill="#FFFFFF" stroke="#CECBC4" stroke-width="0.5"/>
<text x="28" y="333" font-size="11" fill="#555551" font-weight="normal" text-anchor="start">AI Projects (8)</text>
<rect x="8" y="348" width="224" height="30" rx="6" fill="#FFFFFF" stroke="#CECBC4" stroke-width="0.5"/>
<text x="28" y="367" font-size="11" fill="#555551" font-weight="normal" text-anchor="start">Learning (5)</text>
<rect x="8" y="382" width="224" height="30" rx="6" fill="#FFFFFF" stroke="#CECBC4" stroke-width="0.5"/>
<text x="28" y="401" font-size="11" fill="#555551" font-weight="normal" text-anchor="start">Content (3)</text>
<line x1="12" y1="840" x2="228" y2="840" stroke="#CECBC4" stroke-width="0.5"/>
<circle cx="26" cy="872" r="16" fill="#E6E4DF" stroke="#CECBC4" stroke-width="0.5"/>
<text x="26" y="878" font-size="12" fill="#555551" font-weight="normal" text-anchor="middle">M</text>
<text x="50" y="868" font-size="12" fill="#1A1A1A" font-weight="500" text-anchor="start">Manas</text>
<text x="50" y="882" font-size="10" fill="#9B9994" font-weight="normal" text-anchor="start">Free plan</text>
<rect x="240" y="50" width="1200" height="50" rx="0" fill="#FFFFFF" stroke="#CECBC4" stroke-width="0.5"/>
<rect x="260" y="62" width="87" height="28" rx="14" fill="#E8F0FE" stroke="#1967D2" stroke-width="1"/>
<text x="303" y="80" font-size="11" fill="#1967D2" font-weight="normal" text-anchor="middle">All chats</text>
<rect x="355" y="62" width="73" height="28" rx="14" fill="#FFFFFF" stroke="#CECBC4" stroke-width="0.5"/>
<text x="391" y="80" font-size="11" fill="#555551" font-weight="normal" text-anchor="middle">Starred</text>
<rect x="436" y="62" width="66" height="28" rx="14" fill="#FFFFFF" stroke="#CECBC4" stroke-width="0.5"/>
<text x="469" y="80" font-size="11" fill="#555551" font-weight="normal" text-anchor="middle">Shared</text>
<rect x="510" y="62" width="94" height="28" rx="14" fill="#FFFFFF" stroke="#CECBC4" stroke-width="0.5"/>
<text x="557" y="80" font-size="11" fill="#555551" font-weight="normal" text-anchor="middle">Code chats</text>
<text x="1320" y="80" font-size="11" fill="#555551" font-weight="normal" text-anchor="start">Sort: Newest ▾</text>
<text x="264" y="122" font-size="11" fill="#9B9994" font-weight="500" text-anchor="start">Today</text>
<rect x="264" y="134" width="1152" height="56" rx="8" fill="#FFFFFF" stroke="#CECBC4" stroke-width="0.5"/>
<rect x="278" y="148" width="28" height="28" rx="14" fill="#F0F0EF" stroke="#CECBC4" stroke-width="0.5"/>
<text x="292" y="166" font-size="13" fill="#555551" font-weight="normal" text-anchor="middle">💬</text>
<text x="318" y="156" font-size="12" fill="#1A1A1A" font-weight="500" text-anchor="start">What is RAG in large language models?</text>
<text x="318" y="172" font-size="10" fill="#9B9994" font-weight="normal" text-anchor="start">3:42 PM · 8 msgs · Web search</text>
<text x="1336" y="166" font-size="16" fill="#9B9994" font-weight="normal" text-anchor="start">★</text>
<text x="1362" y="166" font-size="14" fill="#9B9994" font-weight="normal" text-anchor="start">✏</text>
<text x="1390" y="166" font-size="16" fill="#9B9994" font-weight="normal" text-anchor="start">⋯</text>
<rect x="264" y="196" width="1152" height="56" rx="8" fill="#FFFFFF" stroke="#CECBC4" stroke-width="0.5"/>
<rect x="278" y="210" width="28" height="28" rx="14" fill="#F0F0EF" stroke="#CECBC4" stroke-width="0.5"/>
<text x="292" y="228" font-size="13" fill="#555551" font-weight="normal" text-anchor="middle">💬</text>
<text x="318" y="218" font-size="12" fill="#1A1A1A" font-weight="500" text-anchor="start">Build a React app with JWT auth</text>
<text x="318" y="234" font-size="10" fill="#9B9994" font-weight="normal" text-anchor="start">1:15 PM · 24 msgs · Code</text>
<text x="1336" y="228" font-size="16" fill="#9B9994" font-weight="normal" text-anchor="start">★</text>
<text x="1362" y="228" font-size="14" fill="#9B9994" font-weight="normal" text-anchor="start">✏</text>
<text x="1390" y="228" font-size="16" fill="#9B9994" font-weight="normal" text-anchor="start">⋯</text>
<text x="264" y="280" font-size="11" fill="#9B9994" font-weight="500" text-anchor="start">Yesterday</text>
<rect x="264" y="292" width="1152" height="56" rx="8" fill="#FFFFFF" stroke="#CECBC4" stroke-width="0.5"/>
<rect x="278" y="306" width="28" height="28" rx="14" fill="#F0F0EF" stroke="#CECBC4" stroke-width="0.5"/>
<text x="292" y="324" font-size="13" fill="#555551" font-weight="normal" text-anchor="middle">💬</text>
<text x="318" y="314" font-size="12" fill="#1A1A1A" font-weight="500" text-anchor="start">Attention mechanisms in transformers</text>
<text x="318" y="330" font-size="10" fill="#9B9994" font-weight="normal" text-anchor="start">11:30 AM · 12 msgs</text>
<text x="1336" y="324" font-size="16" fill="#F9A825" font-weight="normal" text-anchor="start">★</text>
<text x="1362" y="324" font-size="14" fill="#9B9994" font-weight="normal" text-anchor="start">✏</text>
<text x="1390" y="324" font-size="16" fill="#9B9994" font-weight="normal" text-anchor="start">⋯</text>
<rect x="264" y="354" width="1152" height="56" rx="8" fill="#FFFFFF" stroke="#CECBC4" stroke-width="0.5"/>
<rect x="278" y="368" width="28" height="28" rx="14" fill="#F0F0EF" stroke="#CECBC4" stroke-width="0.5"/>
<text x="292" y="386" font-size="13" fill="#555551" font-weight="normal" text-anchor="middle">💬</text>
<text x="318" y="376" font-size="12" fill="#1A1A1A" font-weight="500" text-anchor="start">Best anime Fall 2024 season</text>
<text x="318" y="392" font-size="10" fill="#9B9994" font-weight="normal" text-anchor="start">9:00 AM · 5 msgs · Web</text>
<text x="1336" y="386" font-size="16" fill="#9B9994" font-weight="normal" text-anchor="start">★</text>
<text x="1362" y="386" font-size="14" fill="#9B9994" font-weight="normal" text-anchor="start">✏</text>
<text x="1390" y="386" font-size="16" fill="#9B9994" font-weight="normal" text-anchor="start">⋯</text>
<text x="264" y="438" font-size="11" fill="#9B9994" font-weight="500" text-anchor="start">This week</text>
<rect x="264" y="450" width="1152" height="56" rx="8" fill="#FFFFFF" stroke="#CECBC4" stroke-width="0.5"/>
<rect x="278" y="464" width="28" height="28" rx="14" fill="#F0F0EF" stroke="#CECBC4" stroke-width="0.5"/>
<text x="292" y="482" font-size="13" fill="#555551" font-weight="normal" text-anchor="middle">💬</text>
<text x="318" y="472" font-size="12" fill="#1A1A1A" font-weight="500" text-anchor="start">SIH 2024 hackathon problem ideas</text>
<text x="318" y="488" font-size="10" fill="#9B9994" font-weight="normal" text-anchor="start">Mon · 22 msgs</text>
<text x="1336" y="482" font-size="16" fill="#9B9994" font-weight="normal" text-anchor="start">★</text>
<text x="1362" y="482" font-size="14" fill="#9B9994" font-weight="normal" text-anchor="start">✏</text>
<text x="1390" y="482" font-size="16" fill="#9B9994" font-weight="normal" text-anchor="start">⋯</text>
<rect x="264" y="512" width="1152" height="56" rx="8" fill="#FFFFFF" stroke="#CECBC4" stroke-width="0.5"/>
<rect x="278" y="526" width="28" height="28" rx="14" fill="#F0F0EF" stroke="#CECBC4" stroke-width="0.5"/>
<text x="292" y="544" font-size="13" fill="#555551" font-weight="normal" text-anchor="middle">💬</text>
<text x="318" y="534" font-size="12" fill="#1A1A1A" font-weight="500" text-anchor="start">Deploy MERN app on Render + Vercel</text>
<text x="318" y="550" font-size="10" fill="#9B9994" font-weight="normal" text-anchor="start">Sun · 15 msgs · Code</text>
<text x="1336" y="544" font-size="16" fill="#9B9994" font-weight="normal" text-anchor="start">★</text>
<text x="1362" y="544" font-size="14" fill="#9B9994" font-weight="normal" text-anchor="start">✏</text>
<text x="1390" y="544" font-size="16" fill="#9B9994" font-weight="normal" text-anchor="start">⋯</text>
<rect x="264" y="574" width="1152" height="56" rx="8" fill="#FFFFFF" stroke="#CECBC4" stroke-width="0.5"/>
<rect x="278" y="588" width="28" height="28" rx="14" fill="#F0F0EF" stroke="#CECBC4" stroke-width="0.5"/>
<text x="292" y="606" font-size="13" fill="#555551" font-weight="normal" text-anchor="middle">💬</text>
<text x="318" y="596" font-size="12" fill="#1A1A1A" font-weight="500" text-anchor="start">Psychology of procrastination</text>
<text x="318" y="612" font-size="10" fill="#9B9994" font-weight="normal" text-anchor="start">Sat · 7 msgs</text>
<text x="1336" y="606" font-size="16" fill="#9B9994" font-weight="normal" text-anchor="start">★</text>
<text x="1362" y="606" font-size="14" fill="#9B9994" font-weight="normal" text-anchor="start">✏</text>
<text x="1390" y="606" font-size="16" fill="#9B9994" font-weight="normal" text-anchor="start">⋯</text>
</svg>